<mxfile host="app.diagrams.net" modified="2021-12-06T17:48:47.875Z" agent="5.0 (Windows NT 10.0; Win64; x64) AppleWebKit/537.36 (KHTML, like Gecko) Chrome/96.0.4664.45 Safari/537.36" etag="Dgx7APUiVULjjxmjuriu" version="15.8.9" type="github">
  <diagram id="_q_DbptDq7wxJnAadDyK" name="Page-1">
    <mxGraphModel dx="868" dy="496" grid="1" gridSize="10" guides="1" tooltips="1" connect="1" arrows="1" fold="1" page="1" pageScale="1" pageWidth="1169" pageHeight="827" math="0" shadow="0">
      <root>
        <mxCell id="0" />
        <mxCell id="1" parent="0" />
        <mxCell id="Xxa_5JwcbgkqYQRVpqca-5" style="edgeStyle=orthogonalEdgeStyle;rounded=0;orthogonalLoop=1;jettySize=auto;html=1;exitX=1;exitY=0.5;exitDx=0;exitDy=0;entryX=0;entryY=0.5;entryDx=0;entryDy=0;endArrow=none;endFill=0;" edge="1" parent="1" source="Xxa_5JwcbgkqYQRVpqca-2" target="Xxa_5JwcbgkqYQRVpqca-4">
          <mxGeometry relative="1" as="geometry" />
        </mxCell>
        <mxCell id="Xxa_5JwcbgkqYQRVpqca-7" value="1" style="edgeLabel;html=1;align=center;verticalAlign=middle;resizable=0;points=[];" vertex="1" connectable="0" parent="Xxa_5JwcbgkqYQRVpqca-5">
          <mxGeometry x="-0.7429" y="-1" relative="1" as="geometry">
            <mxPoint as="offset" />
          </mxGeometry>
        </mxCell>
        <mxCell id="Xxa_5JwcbgkqYQRVpqca-8" value="n" style="edgeLabel;html=1;align=center;verticalAlign=middle;resizable=0;points=[];" vertex="1" connectable="0" parent="Xxa_5JwcbgkqYQRVpqca-5">
          <mxGeometry x="0.7571" y="-1" relative="1" as="geometry">
            <mxPoint as="offset" />
          </mxGeometry>
        </mxCell>
        <mxCell id="Xxa_5JwcbgkqYQRVpqca-2" value="Autor" style="whiteSpace=wrap;html=1;align=center;" vertex="1" parent="1">
          <mxGeometry x="120" y="140" width="100" height="40" as="geometry" />
        </mxCell>
        <mxCell id="Xxa_5JwcbgkqYQRVpqca-3" value="Livro" style="whiteSpace=wrap;html=1;align=center;" vertex="1" parent="1">
          <mxGeometry x="640" y="140" width="100" height="40" as="geometry" />
        </mxCell>
        <mxCell id="Xxa_5JwcbgkqYQRVpqca-6" style="edgeStyle=orthogonalEdgeStyle;rounded=0;orthogonalLoop=1;jettySize=auto;html=1;exitX=1;exitY=0.5;exitDx=0;exitDy=0;endArrow=none;endFill=0;" edge="1" parent="1" source="Xxa_5JwcbgkqYQRVpqca-4" target="Xxa_5JwcbgkqYQRVpqca-3">
          <mxGeometry relative="1" as="geometry" />
        </mxCell>
        <mxCell id="Xxa_5JwcbgkqYQRVpqca-9" value="n" style="edgeLabel;html=1;align=center;verticalAlign=middle;resizable=0;points=[];" vertex="1" connectable="0" parent="Xxa_5JwcbgkqYQRVpqca-6">
          <mxGeometry x="-0.7571" y="-1" relative="1" as="geometry">
            <mxPoint as="offset" />
          </mxGeometry>
        </mxCell>
        <mxCell id="Xxa_5JwcbgkqYQRVpqca-10" value="1" style="edgeLabel;html=1;align=center;verticalAlign=middle;resizable=0;points=[];" vertex="1" connectable="0" parent="Xxa_5JwcbgkqYQRVpqca-6">
          <mxGeometry x="0.8" relative="1" as="geometry">
            <mxPoint as="offset" />
          </mxGeometry>
        </mxCell>
        <mxCell id="Xxa_5JwcbgkqYQRVpqca-4" value="Escreve" style="shape=associativeEntity;whiteSpace=wrap;html=1;align=center;" vertex="1" parent="1">
          <mxGeometry x="360" y="130" width="140" height="60" as="geometry" />
        </mxCell>
      </root>
    </mxGraphModel>
  </diagram>
</mxfile>
